<svg width="312" height="350" viewBox="0 0 312 350" version="1.1" xmlns="http://www.w3.org/2000/svg" xmlns:xlink="http://www.w3.org/1999/xlink" xmlns:figma="http://www.figma.com/figma/ns">
<title>v1</title>
<desc>Created using Figma</desc>
<g id="Canvas" transform="translate(6 5)" figma:type="canvas">
<g id="v1" style="mix-blend-mode:normal;" figma:type="frame">
<g id="B" style="mix-blend-mode:normal;" figma:type="vector">
<use xlink:href="#path0_stroke" transform="translate(50 80)" fill="#FED48C" style="mix-blend-mode:normal;"/>
</g>
<g id="O" style="mix-blend-mode:normal;" figma:type="vector">
<use xlink:href="#path1_stroke" transform="translate(130 50)" fill="#BAE6FA" style="mix-blend-mode:normal;"/>
</g>
<g id="S" style="mix-blend-mode:normal;" figma:type="vector">
<use xlink:href="#path2_stroke" transform="translate(160 80)" fill="#E9E9E9" style="mix-blend-mode:normal;"/>
</g>
<g id="C" style="mix-blend-mode:normal;" figma:type="vector">
<use xlink:href="#path3_stroke" transform="translate(210 100)" fill="#FED48C" style="mix-blend-mode:normal;"/>
</g>
<g id="N" style="mix-blend-mode:normal;" figma:type="vector">
<use xlink:href="#path4_stroke" transform="translate(50 190)" fill="#FED48C" style="mix-blend-mode:normal;"/>
</g>
<g id="&#195;&#136;" style="mix-blend-mode:normal;" figma:type="vector">
<use xlink:href="#path5_stroke" transform="translate(100 210)" fill="#E9E9E9" style="mix-blend-mode:normal;"/>
</g>
<g id="&#226;&#128;&#148;" style="mix-blend-mode:normal;" figma:type="vector">
<use xlink:href="#path6_stroke" transform="translate(100 190)" fill="#E9E9E9" style="mix-blend-mode:normal;"/>
</g>
<g id="G" style="mix-blend-mode:normal;" figma:type="vector">
<use xlink:href="#path7_stroke" transform="translate(140 190)" fill="#BAE6FA" style="mix-blend-mode:normal;"/>
</g>
<g id="R" style="mix-blend-mode:normal;" figma:type="vector">
<use xlink:href="#path8_stroke" transform="translate(160 230)" fill="#FED48C" style="mix-blend-mode:normal;"/>
</g>
<g id="E" style="mix-blend-mode:normal;" figma:type="vector">
<use xlink:href="#path9_stroke" transform="translate(230 280)" fill="#E9E9E9" style="mix-blend-mode:normal;"/>
</g>
<g id="roof" style="mix-blend-mode:normal;" figma:type="vector">
<use xlink:href="#path10_stroke" fill="#D5BB9B" style="mix-blend-mode:normal;"/>
</g>
</g>
</g>
<defs>
<path id="path0_stroke" d="M 0 0L 0 -5C -2.76142 -5 -5 -2.76142 -5 1.11022e-15L 0 0ZM 0 90L -5 90C -5 92.7614 -2.76142 95 1.11022e-15 95L 0 90ZM 120 90L 120 95C 122.761 95 125 92.7614 125 90L 120 90ZM 120 40L 125 40C 125 37.2386 122.761 35 120 35L 120 40ZM 60 40L 60 45C 62.7614 45 65 42.7614 65 40L 60 40ZM 60 0L 65 0C 65 -2.76142 62.7614 -5 60 -5L 60 0ZM -5 0L -5 40L 5 40L 5 0L -5 0ZM -5 40L -5 90L 5 90L 5 40L -5 40ZM 0 95L 120 95L 120 85L 0 85L 0 95ZM 125 90L 125 40L 115 40L 115 90L 125 90ZM 120 35L 0 35L 0 45L 120 45L 120 35ZM 0 45L 60 45L 60 35L 0 35L 0 45ZM 65 40L 65 0L 55 0L 55 40L 65 40ZM 60 -5L 0 -5L 0 5L 60 5L 60 -5Z"/>
<path id="path1_stroke" d="M 0 0L 0 -5C -2.76142 -5 -5 -2.76142 -5 1.11022e-15L 0 0ZM 0 50L -5 50C -5 52.7614 -2.76142 55 1.11022e-15 55L 0 50ZM 40 50L 40 55C 42.7614 55 45 52.7614 45 50L 40 50ZM 40 0L 45 0C 45 -2.76142 42.7614 -5 40 -5L 40 0ZM -5 0L -5 50L 5 50L 5 0L -5 0ZM 0 55L 40 55L 40 45L 0 45L 0 55ZM 45 50L 45 0L 35 0L 35 50L 45 50ZM 40 -5L 0 -5L 0 5L 40 5L 40 -5Z"/>
<path id="path2_stroke" d="M 90 5C 92.7614 5 95 2.76142 95 0C 95 -2.76142 92.7614 -5 90 -5L 90 5ZM 30 0L 30 -5C 27.2386 -5 25 -2.76142 25 1.11022e-15L 30 0ZM 30 90L 25 90C 25 92.7614 27.2386 95 30 95L 30 90ZM 90 90L 95 90C 95 87.2386 92.7614 85 90 85L 90 90ZM 90 130L 90 135C 92.7614 135 95 132.761 95 130L 90 130ZM 0 125C -2.76142 125 -5 127.239 -5 130C -5 132.761 -2.76142 135 0 135L 0 125ZM 90 -5L 30 -5L 30 5L 90 5L 90 -5ZM 25 0L 25 90L 35 90L 35 0L 25 0ZM 30 95L 90 95L 90 85L 30 85L 30 95ZM 85 90L 85 130L 95 130L 95 90L 85 90ZM 90 125L 0 125L 0 135L 90 135L 90 125Z"/>
<path id="path3_stroke" d="M 40 5C 42.7614 5 45 2.76142 45 0C 45 -2.76142 42.7614 -5 40 -5L 40 5ZM 0 0L 0 -5C -2.76142 -5 -5 -2.76142 -5 1.11022e-15L 0 0ZM 0 50L -5 50C -5 52.7614 -2.76142 55 1.11022e-15 55L 0 50ZM 40 55C 42.7614 55 45 52.7614 45 50C 45 47.2386 42.7614 45 40 45L 40 55ZM 40 -5L 0 -5L 0 5L 40 5L 40 -5ZM -5 0L -5 50L 5 50L 5 0L -5 0ZM 0 55L 40 55L 40 45L 0 45L 0 55Z"/>
<path id="path4_stroke" d="M -5 150C -5 152.761 -2.76142 155 0 155C 2.76142 155 5 152.761 5 150L -5 150ZM 0 0L 4.9029 -0.980581C 4.39876 -3.50128 2.06542 -5.22897 -0.492688 -4.97567C -3.05079 -4.72236 -5 -2.57062 -5 -3.15712e-15L 0 0ZM 30 150L 25.0971 150.981C 25.6012 153.501 27.9346 155.229 30.4927 154.976C 33.0508 154.722 35 152.571 35 150L 30 150ZM 35 0C 35 -2.76142 32.7614 -5 30 -5C 27.2386 -5 25 -2.76142 25 0L 35 0ZM 5 150L 5 0L -5 0L -5 150L 5 150ZM -4.9029 0.980581L 25.0971 150.981L 34.9029 149.019L 4.9029 -0.980581L -4.9029 0.980581ZM 35 150L 35 0L 25 0L 25 150L 35 150Z"/>
<path id="path5_stroke" d="M 20 5C 22.7614 5 25 2.76142 25 0C 25 -2.76142 22.7614 -5 20 -5L 20 5ZM 0 0L 0 -5C -2.76142 -5 -5 -2.76142 -5 1.11022e-15L 0 0ZM 20 46.7869C 22.7614 46.7869 25 44.5483 25 41.7869C 25 39.0255 22.7614 36.7869 20 36.7869L 20 46.7869ZM 0 130L -5 130C -5 132.761 -2.76142 135 1.11022e-15 135L 0 130ZM 110 135C 112.761 135 115 132.761 115 130C 115 127.239 112.761 125 110 125L 110 135ZM 20 -5L 0 -5L 0 5L 20 5L 20 -5ZM -5 0L -5 41.7869L 5 41.7869L 5 0L -5 0ZM 0 46.7869L 20 46.7869L 20 36.7869L 0 36.7869L 0 46.7869ZM -5 41.7869L -5 130L 5 130L 5 41.7869L -5 41.7869ZM 0 135L 110 135L 110 125L 0 125L 0 135Z"/>
<path id="path6_stroke" d="M 0 -5C -2.76142 -5 -5 -2.76142 -5 0C -5 2.76142 -2.76142 5 0 5L 0 -5ZM 20 5C 22.7614 5 25 2.76142 25 0C 25 -2.76142 22.7614 -5 20 -5L 20 5ZM 0 5L 20 5L 20 -5L 0 -5L 0 5Z"/>
<path id="path7_stroke" d="M 90 5C 92.7614 5 95 2.76142 95 0C 95 -2.76142 92.7614 -5 90 -5L 90 5ZM 0 0L 0 -5C -2.76142 -5 -5 -2.76142 -5 1.11022e-15L 0 0ZM 0 130L -5 130C -5 132.761 -2.76142 135 1.11022e-15 135L 0 130ZM 70 130L 70 135C 72.7614 135 75 132.761 75 130L 70 130ZM 70 90L 75 90C 75 87.2386 72.7614 85 70 85L 70 90ZM 50.8438 85C 48.0823 85 45.8438 87.2386 45.8438 90C 45.8438 92.7614 48.0823 95 50.8438 95L 50.8438 85ZM 90 -5L 0 -5L 0 5L 90 5L 90 -5ZM -5 0L -5 130L 5 130L 5 0L -5 0ZM 0 135L 70 135L 70 125L 0 125L 0 135ZM 75 130L 75 90L 65 90L 65 130L 75 130ZM 70 85L 50.8438 85L 50.8438 95L 70 95L 70 85Z"/>
<path id="path8_stroke" d="M -5 70C -5 72.7614 -2.76142 75 0 75C 2.76142 75 5 72.7614 5 70L -5 70ZM 0 0L 0 -5C -2.76142 -5 -5 -2.76142 -5 1.11022e-15L 0 0ZM 90 0L 95 0C 95 -2.76142 92.7614 -5 90 -5L 90 0ZM 90 30L 90 35C 92.7614 35 95 32.7614 95 30L 90 30ZM 0 30L 0 25C -1.84672 25 -3.54308 26.0179 -4.41198 27.6475C -5.28087 29.277 -5.18082 31.2528 -4.15175 32.7862L 0 30ZM 22.692 72.7862C 24.2308 75.0792 27.337 75.6905 29.63 74.1517C 31.9229 72.613 32.5343 69.5067 30.9955 67.2138L 22.692 72.7862ZM 5 70L 5 0L -5 0L -5 70L 5 70ZM 0 5L 90 5L 90 -5L 0 -5L 0 5ZM 85 0L 85 30L 95 30L 95 0L 85 0ZM 90 25L 0 25L 0 35L 90 35L 90 25ZM -4.15175 32.7862L 22.692 72.7862L 30.9955 67.2138L 4.15175 27.2138L -4.15175 32.7862Z"/>
<path id="path9_stroke" d="M 20 5C 22.7614 5 25 2.76142 25 0C 25 -2.76142 22.7614 -5 20 -5L 20 5ZM 0 0L 0 -5C -2.76142 -5 -5 -2.76142 -5 1.11022e-15L 0 0ZM 13 35C 15.7614 35 18 32.7614 18 30C 18 27.2386 15.7614 25 13 25L 13 35ZM 0 60L -5 60C -5 62.7614 -2.76142 65 1.11022e-15 65L 0 60ZM 20 65C 22.7614 65 25 62.7614 25 60C 25 57.2386 22.7614 55 20 55L 20 65ZM 20 -5L 0 -5L 0 5L 20 5L 20 -5ZM -5 0L -5 30L 5 30L 5 0L -5 0ZM 0 35L 13 35L 13 25L 0 25L 0 35ZM -5 30L -5 60L 5 60L 5 30L -5 30ZM 0 65L 20 65L 20 55L 0 55L 0 65Z"/>
<path id="path10_stroke" d="M -1.85695 55.3576C -4.42087 56.3832 -5.66795 59.293 -4.64238 61.857C -3.61682 64.4209 -0.706964 65.668 1.85695 64.6424L -1.85695 55.3576ZM 150 0L 151.857 -4.64238C 150.665 -5.11921 149.335 -5.11921 148.143 -4.64238L 150 0ZM 298.143 64.6424C 300.707 65.668 303.617 64.4209 304.642 61.857C 305.668 59.293 304.421 56.3832 301.857 55.3576L 298.143 64.6424ZM 1.85695 64.6424L 151.857 4.64238L 148.143 -4.64238L -1.85695 55.3576L 1.85695 64.6424ZM 148.143 4.64238L 298.143 64.6424L 301.857 55.3576L 151.857 -4.64238L 148.143 4.64238Z"/>
</defs>
</svg>
