<?xml version="1.0" standalone="no"?>
<!DOCTYPE svg PUBLIC "-//W3C//DTD SVG 20010904//EN"
 "http://www.w3.org/TR/2001/REC-SVG-20010904/DTD/svg10.dtd">
<svg version="1.0" xmlns="http://www.w3.org/2000/svg"
 width="260.000000pt" height="260.000000pt" viewBox="0 0 260.000000 260.000000"
 preserveAspectRatio="xMidYMid meet">
<metadata>
Created by potrace 1.11, written by Peter Selinger 2001-2013
</metadata>
<g transform="translate(0.000000,260.000000) scale(0.100000,-0.100000)"
fill="#000000" stroke="none">
<path d="M0 1300 l0 -1300 1300 0 1300 0 0 1300 0 1300 -1300 0 -1300 0 0
-1300z m1455 615 l0 -190 -135 -3 c-200 -4 -180 -25 -180 192 0 100 3 186 7
190 4 3 75 5 157 4 l151 -3 0 -190z m-401 -1 c13 -5 16 -26 16 -130 l0 -124
183 0 c100 0 188 -4 195 -8 9 -7 12 -52 10 -193 l-3 -184 -415 0 -415 0 -3
314 c-2 245 1 316 10 323 15 9 399 11 422 2z m925 -12 c6 -11 6 -24 0 -35 -9
-15 -30 -17 -194 -17 l-185 0 0 -254 0 -255 184 -3 c101 -2 188 -7 193 -11 11
-11 11 -303 0 -314 -13 -13 -603 -16 -627 -3 -25 14 -26 46 -1 60 12 6 123 10
290 10 l271 0 0 90 0 90 -175 0 c-162 0 -177 2 -195 20 -19 19 -20 33 -20 311
0 181 4 298 10 310 10 18 23 19 225 19 195 0 215 -2 224 -18z m-15 -118 c21
-8 21 -50 0 -58 -9 -3 -67 -6 -130 -6 l-114 0 0 -130 0 -129 128 -3 127 -3 0
-25 0 -25 -155 0 -155 0 -3 184 c-2 141 1 186 10 193 15 9 269 11 292 2z
m-843 -584 c25 -14 25 -46 0 -60 -11 -5 -47 -10 -81 -10 -34 0 -70 5 -81 10
-24 13 -25 46 -1 59 22 14 138 14 163 1z m-444 -17 c4 -10 35 -155 69 -323
l62 -305 1 307 c1 168 4 313 7 322 3 9 16 16 29 16 13 0 26 -7 29 -16 3 -9 6
-237 6 -509 0 -437 -2 -494 -16 -506 -37 -30 -46 -3 -109 312 -34 167 -64 311
-67 319 -4 8 -7 -130 -7 -306 -1 -276 -3 -323 -16 -328 -8 -3 -22 -3 -30 0
-13 5 -15 72 -15 513 0 279 3 511 7 514 13 13 44 7 50 -10z m1168 -13 l0 -25
-287 -3 -288 -2 0 -390 0 -390 195 0 195 0 0 95 0 95 -54 0 c-61 0 -88 19 -69
48 8 14 27 17 94 17 l84 0 0 -160 0 -160 -244 -3 c-171 -2 -248 1 -257 9 -12
9 -14 89 -14 439 0 236 3 436 6 444 6 15 41 16 323 14 l316 -3 0 -25z m-724
-100 c25 -14 25 -46 0 -60 -11 -5 -40 -10 -65 -10 l-46 0 0 -100 0 -100 60 0
c47 0 62 -4 67 -16 12 -32 -11 -49 -71 -52 l-56 -3 0 -249 0 -250 350 0 c320
0 350 -1 359 -17 6 -11 6 -24 0 -35 -9 -17 -36 -18 -382 -18 -277 0 -376 3
-385 12 -9 9 -12 123 -12 450 0 406 1 438 18 447 22 14 138 14 163 1z m857
-257 c1 -68 1 -124 0 -125 -2 -1 -126 -5 -276 -8 l-273 -5 71 -104 c71 -105
82 -134 55 -145 -26 -10 -38 2 -95 89 l-55 84 -5 -81 c-4 -61 -9 -84 -22 -91
-12 -8 -21 -7 -32 2 -14 12 -16 46 -16 246 0 129 3 241 6 249 6 15 41 16 323
14 l316 -3 3 -122z m1 -210 c19 -34 -4 -53 -64 -53 l-55 0 0 -60 c0 -54 2 -60
21 -60 31 0 59 -19 59 -40 0 -21 -28 -40 -59 -40 -19 0 -21 -6 -21 -60 l0 -60
55 0 c60 0 83 -19 64 -53 -8 -14 -25 -17 -94 -17 -73 0 -86 3 -95 19 -6 12
-10 98 -10 211 0 113 4 199 10 211 9 16 22 19 95 19 69 0 86 -3 94 -17z"/>
<path d="M1207 2044 c-4 -4 -7 -63 -7 -131 l0 -123 100 0 101 0 -3 128 -3 127
-90 3 c-50 1 -94 0 -98 -4z"/>
<path d="M680 1755 l0 -95 165 0 165 0 0 95 0 95 -165 0 -165 0 0 -95z"/>
<path d="M680 1460 l0 -130 360 0 360 0 0 130 0 130 -360 0 -360 0 0 -130z"/>
<path d="M1400 815 l0 -65 260 0 260 0 0 65 0 65 -260 0 -260 0 0 -65z"/>
</g>
</svg>
