<svg height="70" viewBox="0 0 436 580" xmlns="http://www.w3.org/2000/svg" xmlns:xlink="http://www.w3.org/1999/xlink">
  <g>
    <use fill="#8BC59D" xlink:href="#a" transform="translate(.302 .955)" />
    <use fill="#FED48C" xlink:href="#b" transform="translate(112.995 131.975)" />
    <use fill="#BAE6FA" xlink:href="#c" transform="translate(192.995 101.975)" />
    <use fill="#E9E9E9" xlink:href="#d" transform="translate(222.995 131.975)" />
    <use fill="#FED48C" xlink:href="#e" transform="translate(272.995 151.975)" />
    <use fill="#FED48C" xlink:href="#f" transform="translate(112.995 241.96)" />
    <use fill="#E9E9E9" xlink:href="#g" transform="translate(162.995 261.975)" />
    <use fill="#E9E9E9" xlink:href="#h" transform="translate(162.995 241.975)" />
    <use fill="#BAE6FA" xlink:href="#i" transform="translate(202.995 241.975)" />
    <use fill="#FED48C" xlink:href="#j" transform="translate(222.938 281.975)" />
    <use fill="#E9E9E9" xlink:href="#k" transform="translate(292.995 331.975)" />
    <use fill="#D5BB9B" xlink:href="#l" transform="translate(63 52)" />
  </g>
  <defs>
    <path id="a" d="M218.426 0c36.698 3.67 78.9 13.89 110.095 32.24 40.37 23.853 69.728 55.047 91.747 97.25 7.34 22.02 14.68 47.708 14.68 73.396 3.67 66.058-18.35 122.94-55.048 174.318-55.05 67.892-110.097 135.784-159.64 201.84-5.504 0-9.174-7.34-12.844-12.843-49.543-60.552-99.086-122.94-146.794-187.16-31.193-36.7-49.543-78.903-55.047-128.446-12.845-53.212-3.67-108.26 29.36-152.298C71.63 48.753 121.173 17.56 181.726 6.55l36.7-6.55z"/>
    <path id="b" d="M5 5V0C2.2 0 0 2.2 0 5h5zm0 90H0c0 2.8 2.2 5 5 5v-5zm120 0v5c2.8 0 5-2.2 5-5h-5zm0-50h5c0-2.8-2.2-5-5-5v5zm-60 0v5c2.8 0 5-2.2 5-5h-5zm0-40h5c0-2.8-2.2-5-5-5v5zM0 5v40h10V5H0zm0 40v50h10V45H0zm5 55h120V90H5v10zm125-5V45h-10v50h10zm-5-55H5v10h120V40zM5 50h60V40H5v10zm65-5V5H60v40h10zM65 0H5v10h60V0z"/>
    <path id="c" d="M5 5V0C2.2 0 0 2.2 0 5h5zm0 50H0c0 2.8 2.2 5 5 5v-5zm40 0v5c2.8 0 5-2.2 5-5h-5zm0-50h5c0-2.8-2.2-5-5-5v5zM0 5v50h10V5H0zm5 55h40V50H5v10zm45-5V5H40v50h10zM45 0H5v10h40V0z"/>
    <path id="d" d="M95 10c2.8 0 5-2.2 5-5s-2.2-5-5-5v10zM35 5V0c-2.8 0-5 2.2-5 5h5zm0 90h-5c0 2.8 2.2 5 5 5v-5zm60 0h5c0-2.8-2.2-5-5-5v5zm0 40v5c2.8 0 5-2.2 5-5h-5zm-90-5c-2.8 0-5 2.2-5 5s2.2 5 5 5v-10zM95 0H35v10h60V0zM30 5v90h10V5H30zm5 95h60V90H35v10zm55-5v40h10V95H90zm5 35H5v10h90v-10z"/>
    <path id="e" d="M45 10c2.8 0 5-2.2 5-5s-2.2-5-5-5v10zM5 5V0C2.2 0 0 2.2 0 5h5zm0 50H0c0 2.8 2.2 5 5 5v-5zm40 5c2.8 0 5-2.2 5-5s-2.2-5-5-5v10zm0-60H5v10h40V0zM0 5v50h10V5H0zm5 55h40V50H5v10z"/>
    <path id="f" d="M0 155.016c0 2.8 2.2 5 5 5s5-2.2 5-5H0zm5-150l5-1c-.7-2.5-3-4.2-5.6-4-2.4.3-4.4 2.4-4.4 5h5zm30 150l-5 1c.6 2.5 3 4.2 5.5 4 2.6-.3 4.5-2.4 4.5-5h-5zm5-150c0-2.8-2.2-5-5-5s-5 2.2-5 5h10zm-30 150v-150H0v150h10zm-10-149l30 150 10-2-30-150-10 2zm40 149v-150H30v150h10z"/>
    <path id="g" d="M25 10c2.8 0 5-2.2 5-5s-2.2-5-5-5v10zM5 5V0C2.2 0 0 2.2 0 5h5zm20 46.8c2.8 0 5-2.3 5-5 0-2.8-2.2-5-5-5v10zM5 135H0c0 2.8 2.2 5 5 5v-5zm110 5c2.8 0 5-2.2 5-5s-2.2-5-5-5v10zM25 0H5v10h20V0zM0 5v41.8h10V5H0zm5 46.8h20v-10H5v10zm-5-5V135h10V46.8H0zM5 140h110v-10H5v10z"/>
    <path id="h" d="M5 0C2.2 0 0 2.2 0 5s2.2 5 5 5V0zm20 10c2.8 0 5-2.2 5-5s-2.2-5-5-5v10zM5 10h20V0H5v10z"/>
    <path id="i" d="M95 10c2.8 0 5-2.2 5-5s-2.2-5-5-5v10zM5 5V0C2.2 0 0 2.2 0 5h5zm0 130H0c0 2.8 2.2 5 5 5v-5zm70 0v5c2.8 0 5-2.2 5-5h-5zm0-40h5c0-2.8-2.2-5-5-5v5zm-19.2-5c-2.7 0-5 2.2-5 5s2.3 5 5 5V90zM95 0H5v10h90V0zM0 5v130h10V5H0zm5 135h70v-10H5v10zm75-5V95H70v40h10zm-5-45H55.8v10H75V90z"/>
    <path id="j" d="M.057 75c0 2.8 2.2 5 5 5s5-2.2 5-5h-10zm5-70V0c-2.8 0-5 2.2-5 5h5zm90 0h5c0-2.8-2.2-5-5-5v5zm0 30v5c2.8 0 5-2.2 5-5h-5zm-90 0v-5c-1.8 0-3.5 1-4.4 2.6-1 1.7-.8 3.7.2 5.2l4.2-2.8zm22.7 42.8c1.5 2.3 4.6 3 7 1.4 2.2-1.6 2.8-4.7 1.3-7l-8.3 5.6zm-17.7-2.8V5h-10v70h10zm-5-65h90V0h-90v10zm85-5v30h10V5h-10zm5 25h-90v10h90V30zm-94.2 7.8l27 40 8.2-5.6-26.8-40-8.4 5.6z"/>
    <path id="k" d="M25 10c2.8 0 5-2.2 5-5s-2.2-5-5-5v10zM5 5V0C2.2 0 0 2.2 0 5h5zm13 35c2.8 0 5-2.2 5-5s-2.2-5-5-5v10zM5 65H0c0 2.8 2.2 5 5 5v-5zm20 5c2.8 0 5-2.2 5-5s-2.2-5-5-5v10zm0-70H5v10h20V0zM0 5v30h10V5H0zm5 35h13V30H5v10zm-5-5v30h10V35H0zm5 35h20V60H5v10z"/>
    <path id="l" d="M2.995 60.375c-2.4 1-3.7 4-2.6 6.5 1 2.4 4 3.7 6.5 2.6l-4-9.2.1.1zm152-55.4l2-4.6c-1.3-.5-2.7-.5-4 0l2 4.6zm148 64.6c2.7 1 5.6-.2 6.6-2.7 1-2.7-.2-5.6-2.7-6.6l-4 9.2.1.1zm-296 0l150-60-4-9.2-150 60 4 9.2zm146-60l150 60 4-9.2-150-60-4 9.2z"/>
  </defs>
</svg>
